<svg width="100%" height="300" viewBox="0 0 900 300" xmlns="http://www.w3.org/2000/svg">

  <!-- Фон -->
  <defs>
    <linearGradient id="space" x1="0" y1="0" x2="0" y2="1">
      <stop offset="0%" stop-color="#050716"/>
      <stop offset="100%" stop-color="#1b0f3b"/>
    </linearGradient>

    <radialGradient id="nebula1">
      <stop offset="0%" stop-color="#7f5cff" stop-opacity="0.8"/>
      <stop offset="100%" stop-color="#7f5cff" stop-opacity="0"/>
    </radialGradient>

    <radialGradient id="nebula2">
      <stop offset="0%" stop-color="#ff6fb5" stop-opacity="0.7"/>
      <stop offset="100%" stop-color="#ff6fb5" stop-opacity="0"/>
    </radialGradient>
  </defs>

  <rect width="900" height="300" fill="url(#space)" />

  <!-- Туманности -->
  <g opacity="0.55">
    <ellipse cx="170" cy="210" rx="180" ry="110" fill="url(#nebula1)">
      <animate attributeName="cx" values="170;220;170" dur="18s" repeatCount="indefinite"/>
    </ellipse>
    <ellipse cx="600" cy="110" rx="200" ry="115" fill="url(#nebula2)">
      <animate attributeName="cx" values="600;560;600" dur="22s" repeatCount="indefinite"/>
    </ellipse>
  </g>

  <!-- Звёзды -->
  <g>
    <circle cx="110" cy="40" r="2" fill="white" opacity="0.9">
      <animate attributeName="opacity" values="1;0.3;1" dur="2s" repeatCount="indefinite"/>
    </circle>
    <circle cx="300" cy="90" r="1.8" fill="white" opacity="0.9">
      <animate attributeName="opacity" values="1;0.2;1" dur="3s" repeatCount="indefinite"/>
    </circle>
    <circle cx="520" cy="50" r="2.2" fill="white" opacity="0.9">
      <animate attributeName="opacity" values="1;0.4;1" dur="1.8s" repeatCount="indefinite"/>
    </circle>
    <circle cx="810" cy="40" r="1.6" fill="white" opacity="0.8">
      <animate attributeName="opacity" values="1;0.1;1" dur="2.8s" repeatCount="indefinite"/>
    </circle>
  </g>

  <!-- Комета -->
  <g>
    <line x1="-100" y1="30" x2="-40" y2="50" stroke="#9be7ff" stroke-width="3" stroke-linecap="round">
      <animate attributeName="x1" from="-100" to="1000" dur="6s" repeatCount="indefinite"/>
      <animate attributeName="x2" from="-40" to="1060" dur="6s" repeatCount="indefinite"/>
      <animate attributeName="y1" from="30" to="140" dur="6s" repeatCount="indefinite"/>
      <animate attributeName="y2" from="50" to="160" dur="6s" repeatCount="indefinite"/>
    </line>
  </g>

  <!-- Полумесяц + изящный кот -->
 <!-- Новый полумесяц + кошка + удочка + облака -->
<g transform="translate(650, 40)">

  <!-- Верхние облака (прозрачные, iCloud-стиль) -->
  <g opacity="0.35">
    <ellipse cx="-300" cy="-10" rx="180" ry="60" fill="white"/>
    <ellipse cx="-120" cy="-20" rx="140" ry="50" fill="white"/>
    <ellipse cx="40" cy="-5" rx="110" ry="40" fill="white"/>
  </g>

  <!-- Полумесяц -->
  <g>
    <circle cx="0" cy="110" r="85" fill="#f7f4c8" opacity="0.95"/>
    <circle cx="28" cy="95" r="85" fill="#050716"/>
  </g>

  <!-- Кошка внутри полумесяца -->
  <g fill="#ffffff" transform="translate(-10, 20)">
    <!-- Тело -->
    <path d="M -10 120 C -25 100 -25 80 -10 70 C 5 80 5 100 -10 120 Z"/>
    <!-- Голова -->
    <circle cx="-10" cy="60" r="12"/>
    <!-- Ушки -->
    <polygon points="-18,55 -25,45 -10,50"/>
    <polygon points="-2,55 5,45 -10,50"/>
    <!-- Хвост -->
    <path d="M 0 130 Q 40 150 20 180"
          stroke="#ffffff" stroke-width="4" fill="none" stroke-linecap="round"/>
  </g>

  <!-- Удочка вниз -->
  <g stroke="#c0c0c0" stroke-width="3" stroke-linecap="round">
    <line x1="-5" y1="75" x2="-5" y2="200"/>
    <line x1="-5" y1="200" x2="-5" y2="240"/>
  </g>

  <!-- Планета-наживка -->
  <g transform="translate(-5, 240)">
    <circle cx="0" cy="0" r="12" fill="#7f5cff"/>
    <circle cx="0" cy="0" r="5" fill="#cbb3ff"/>
  </g>

  <!-- Нижние облака (густые, вспенённые) -->
  <g opacity="0.75" transform="translate(-350, 200)">
    <ellipse cx="0" cy="0" rx="200" ry="70" fill="white"/>
    <ellipse cx="180" cy="10" rx="160" ry="60" fill="white"/>
    <ellipse cx="360" cy="0" rx="180" ry="65" fill="white"/>
  </g>

</g>

    <!-- Планеты-наживки -->
    <g transform="translate(42, 8)">
      <g>
        <circle cx="0" cy="-28" r="9" fill="#4fd1ff"/>
        <circle cx="0" cy="-28" r="4" fill="#7ff0ff" opacity="0.9"/>
      </g>
      <g>
        <circle cx="0" cy="8" r="7" fill="#ff6fb5"/>
        <circle cx="0" cy="8" r="3" fill="#ffd1ec" opacity="0.9"/>
      </g>
      <g>
        <circle cx="0" cy="40" r="10" fill="#f9c86b"/>
        <circle cx="0" cy="40" r="4" fill="#fff3cf" opacity="0.9"/>
        <animateTransform attributeName="transform"
          type="translate"
          values="0,0; 2,3; 0,0; -2,2; 0,0"
          dur="3s"
          repeatCount="indefinite"/>
      </g>
    </g>
  </g>

  <!-- Текст (сдвинут левее и короче по ширине) -->
  <text x="50" y="150" fill="#ffffff" font-size="38" font-family="Verdana" opacity="0.95">
    Lara Kosta — AI × Fullstack
  </text>

  <text x="50" y="192" fill="#c7c7ff" font-size="24" font-family="Verdana" opacity="0.85">
    Coding in space
  </text>

</svg>